<?xml version="1.0" standalone="no"?>
<!DOCTYPE svg PUBLIC "-//W3C//DTD SVG 20010904//EN"
 "http://www.w3.org/TR/2001/REC-SVG-20010904/DTD/svg10.dtd">
<svg version="1.0" xmlns="http://www.w3.org/2000/svg"
 width="200.000000pt" height="200.000000pt" viewBox="0 0 200.000000 200.000000"
 preserveAspectRatio="xMidYMid meet">
<metadata>
Created by potrace 1.11, written by Peter Selinger 2001-2013
</metadata>
<g transform="translate(0.000000,200.000000) scale(0.100000,-0.100000)"
fill="#000000" stroke="none">
<path d="M789 1463 c-16 -7 -30 -20 -30 -30 -1 -10 -2 -34 -3 -53 -1 -25 -10
-46 -34 -70 -75 -81 -110 -194 -107 -355 2 -139 21 -227 72 -331 61 -126 129
-182 232 -191 31 -3 57 -6 58 -7 0 0 4 -57 8 -126 6 -114 4 -127 -12 -142 -13
-12 -18 -30 -17 -67 3 -101 -10 -91 120 -91 l116 0 -7 58 c-4 31 -8 65 -9 75
0 10 -6 21 -12 25 -8 4 -14 65 -18 166 l-7 159 39 41 c50 51 89 126 97 187 9
60 11 139 5 139 -3 0 -6 36 -6 79 -3 188 -27 295 -85 384 -44 67 -146 116
-220 105 -29 -5 -31 -3 -27 24 3 15 0 29 -6 29 -45 7 -123 2 -147 -8z"/>
</g>
</svg>
